<?xml version="1.0" standalone="no"?><!DOCTYPE svg PUBLIC "-//W3C//DTD SVG 1.1//EN" "http://www.w3.org/Graphics/SVG/1.1/DTD/svg11.dtd"><svg t="1628563635499" class="icon" viewBox="0 0 1024 1024" version="1.1" xmlns="http://www.w3.org/2000/svg" p-id="1203" xmlns:xlink="http://www.w3.org/1999/xlink" width="200" height="200"><defs><style type="text/css"></style></defs><path d="M833.42857168 62H190.57142832a128.57142832 128.57142832 0 0 0-128.57142832 128.57142832v642.85714336a128.57142832 128.57142832 0 0 0 128.57142832 128.57142832h642.85714336a128.57142832 128.57142832 0 0 0 128.57142832-128.57142832V190.57142832a128.57142832 128.57142832 0 0 0-128.57142832-128.57142832z m64.28571416 771.42857168a64.28571416 64.28571416 0 0 1-64.28571417 64.28571416H190.57142832a64.28571416 64.28571416 0 0 1-64.28571416-64.28571416V190.57142832a64.28571416 64.28571416 0 0 1 64.28571417-64.28571416h642.85714335a64.28571416 64.28571416 0 0 1 64.28571416 64.28571417z" p-id="1204"></path><path d="M190.57142832 254.85714248h64.28571416v64.28571504H190.57142832zM319.14285752 254.85714248h450v64.28571504H319.14285752zM190.57142832 447.71428584h64.28571416v64.28571416H190.57142832zM319.14285752 447.71428584h450v64.28571416H319.14285752zM190.57142832 640.57142832h64.28571416v64.28571416H190.57142832zM319.14285752 640.57142832h321.4285708v64.28571416H319.14285752z" p-id="1205"></path></svg>