<?xml version="1.0" standalone="no"?><!DOCTYPE svg PUBLIC "-//W3C//DTD SVG 1.1//EN" "http://www.w3.org/Graphics/SVG/1.1/DTD/svg11.dtd"><svg t="1676860478090" class="icon" viewBox="0 0 1024 1024" version="1.1" xmlns="http://www.w3.org/2000/svg" p-id="6603" xmlns:xlink="http://www.w3.org/1999/xlink" width="200" height="200"><path d="M787.692308 236.307692a78.769231 78.769231 0 0 1 78.76923 78.769231v393.846154a78.769231 78.769231 0 0 1-78.76923 78.769231H236.307692a78.769231 78.769231 0 0 1-78.76923-78.769231V315.076923a78.769231 78.769231 0 0 1 78.76923-78.769231h551.384616z m0 31.507693H236.307692a47.261538 47.261538 0 0 0-47.02523 42.41723L189.046154 315.076923v393.846154a47.261538 47.261538 0 0 0 42.417231 47.025231L236.307692 756.184615h551.384616a47.261538 47.261538 0 0 0 47.02523-42.41723L834.953846 708.923077V315.076923a47.261538 47.261538 0 0 0-42.417231-47.025231L787.692308 267.815385zM369.270154 422.045538c16.541538 0 29.302154 3.780923 38.754461 11.815385 8.979692 7.561846 13.469538 17.723077 13.469539 30.72 0 9.452308-2.363077 17.486769-7.089231 24.103385-4.726154 6.144-11.106462 10.870154-19.613538 13.942154 11.106462 2.126769 19.613538 6.616615 25.284923 13.469538 5.671385 6.852923 8.507077 16.068923 8.507077 27.411692 0 17.014154-5.907692 29.302154-17.48677 37.336616-9.924923 6.616615-23.867077 9.924923-41.826461 9.924923H292.233846v-168.723693z m210.550154 0v21.976616h-56.241231V590.769231h-25.521231v-146.747077h-56.477538v-21.976616h138.24z m46.316307 0l86.252308 125.479385h0.945231v-125.479385h25.757538V590.769231h-25.048615l-87.197539-126.897231h-0.94523V590.769231h-25.757539v-168.723693h25.993846z m-259.702153 92.632616h-48.443077v54.823384h47.734153c10.870154 0 19.377231-1.890462 25.521231-5.198769a23.118769 23.118769 0 0 0 11.579077-21.267692c0-9.924923-3.072-17.250462-8.979692-21.740308-5.907692-4.489846-15.123692-6.616615-27.411692-6.616615z m-3.544616-71.364923h-44.898461v50.333538h44.425846c11.815385 0 20.322462-2.126769 25.521231-6.144 5.198769-4.253538 7.798154-10.870154 7.798153-19.849846 0-8.507077-2.599385-14.651077-7.798153-18.432-5.198769-4.017231-13.705846-5.907692-25.048616-5.907692z" fill="#333333" p-id="6604"></path></svg>