<?xml version="1.0" standalone="no"?><!DOCTYPE svg PUBLIC "-//W3C//DTD SVG 1.1//EN" "http://www.w3.org/Graphics/SVG/1.1/DTD/svg11.dtd"><svg t="1677228314243" class="icon" viewBox="0 0 1024 1024" version="1.1" xmlns="http://www.w3.org/2000/svg" p-id="12937" xmlns:xlink="http://www.w3.org/1999/xlink" width="128" height="128"><path d="M853.333333 256h-341.333333l-85.333333-85.333333H170.666667a85.333333 85.333333 0 0 0-85.333334 85.333333v512a85.333333 85.333333 0 0 0 85.333334 85.333333h682.666666a85.333333 85.333333 0 0 0 85.333334-85.333333V341.333333a85.333333 85.333333 0 0 0-85.333334-85.333333z m-209.92 85.333333a106.666667 106.666667 0 1 1-104.96 106.666667A105.813333 105.813333 0 0 1 643.413333 341.333333zM381.013333 341.333333a106.666667 106.666667 0 1 1-104.96 106.666667A105.813333 105.813333 0 0 1 381.013333 341.333333z m188.586667 426.666667H192v-42.666667a128 128 0 0 1 128-128h125.866667a128 128 0 0 1 128 128l-4.266667 42.666667z m262.4 0h-159.146667v-42.666667a128 128 0 0 0-110.08-128c5.248-0.426667 10.538667-0.426667 15.786667 0h128a128 128 0 0 1 128 128l-2.56 42.666667z" p-id="12938"></path></svg>