<?xml version="1.0" standalone="no"?><!DOCTYPE svg PUBLIC "-//W3C//DTD SVG 1.1//EN" "http://www.w3.org/Graphics/SVG/1.1/DTD/svg11.dtd"><svg t="1678175293067" class="icon" viewBox="0 0 1024 1024" version="1.1" xmlns="http://www.w3.org/2000/svg" p-id="30346" xmlns:xlink="http://www.w3.org/1999/xlink" width="128" height="128"><path d="M835.7888 344.8832L547.2256 158.1056a65.024 65.024 0 0 0-70.4512 0L188.2112 344.8832A64.4096 64.4096 0 0 0 158.6176 399.36v390.8608a64.8192 64.8192 0 0 0 64.7168 64.8192h577.3312a64.8192 64.8192 0 0 0 64.7168-64.8192V399.36a64.4096 64.4096 0 0 0-29.5936-54.4768z m-1.1264 445.3376a34.0992 34.0992 0 0 1-33.9968 34.0992H223.3344a34.0992 34.0992 0 0 1-33.9968-34.0992V399.36A33.6896 33.6896 0 0 1 204.8 370.688L493.4656 184.32a33.792 33.792 0 0 1 37.0688 0L819.2 370.688a33.6896 33.6896 0 0 1 15.4624 28.672z" p-id="30347"></path><path d="M564.5312 663.7568h41.7792Q604.9792 645.12 590.4384 532.48h-43.1104c1.8432 12.8 7.68 56.4224 17.2032 131.2768zM656.6912 663.7568q0-5.632 15.872-130.9696h-43.2128q-14.4384 117.9648-15.872 130.9696zM676.864 508.3136v-28.8768H478.208v28.8768H676.864zM573.44 384.4096h-60.7232q-1.4336 4.7104-37.4784 86.6304h60.5184zM498.2784 663.7568h43.2128q-1.4336-10.24-17.2032-130.9696H481.28q16.9984 129.536 16.9984 130.9696zM623.616 384.4096H583.68l-12.9024 30.72h10.24a12.9024 12.9024 0 0 1 11.4688 8.6016c17.3056 29.7984 26.4192 45.568 27.4432 47.5136h60.416q-24.3712-50.3808-31.6416-61.44c-6.3488-17.2032-14.5408-25.3952-25.088-25.3952zM344.2688 704.1024h28.7744v-1.4336q10.24-218.9312 10.24-221.7984H354.304q0 10.1376-10.0352 223.232zM475.2384 688.2304h204.4928v28.7744H475.2384z" p-id="30348"></path><path d="M427.7248 384.4096h-40.2432v38.912h-43.2128v28.7744h43.2128v265.0112h40.2432V452.096h43.2128v-28.7744h-43.2128v-38.912z" p-id="30349"></path><path d="M460.8 481.28h-28.672v4.4032l10.24 218.8288H471.04v-4.3008L460.8 482.304z" p-id="30350"></path></svg>