<svg width="16" height="16" viewBox="0 0 16 16" fill="none" xmlns="http://www.w3.org/2000/svg">
<path d="M8 0C2.66971 0 0 2.66971 0 8C0 13.3303 2.66971 16 8 16C13.3303 16 16 13.3303 16 8C16 2.66971 13.3303 0 8 0ZM11.3829 8.49371L8.40229 12.0503C8.20114 12.3063 7.808 12.3063 7.60686 12.0503L4.61714 8.49371C4.48 8.32 4.59886 8.064 4.81829 8.064H6.528C6.67429 8.064 6.79314 7.94514 6.79314 7.79886V4.96457C6.79314 4.29714 7.33257 3.75771 8 3.75771C8.66743 3.75771 9.20686 4.29714 9.20686 4.96457V7.79886C9.20686 7.94514 9.32571 8.064 9.472 8.064H11.1726C11.392 8.064 11.52 8.32 11.3829 8.49371Z" fill="#0067FF"/>
</svg>
