<svg width="18" height="18" viewBox="0 0 18 18" fill="none" xmlns="http://www.w3.org/2000/svg">
<path d="M9 17.9773C4.0303 17.9773 0 13.9521 0 8.98864C0 4.02521 4.0303 -9.53674e-06 9 -9.53674e-06C13.9697 -9.53674e-06 18 4.02521 18 8.98864C18 13.9521 13.9697 17.9773 9 17.9773ZM11.1288 4.86758C11.1288 4.69356 11.0379 4.53215 10.8914 4.44135C10.8106 4.39343 10.7197 4.36569 10.6263 4.36569C10.5505 4.36569 10.4722 4.38335 10.4015 4.41865L6.57828 6.32029C6.32828 6.44387 6.22727 6.74652 6.35101 6.99369C6.47475 7.24085 6.77778 7.34173 7.02525 7.22067L10.1212 5.67969V12.3253L6.84343 10.8298C6.77778 10.7995 6.70707 10.7844 6.63384 10.7844H4.95707V7.46279H5.31061C5.58838 7.46279 5.81313 7.23833 5.81313 6.9609C5.81313 6.68347 5.58838 6.45901 5.31061 6.45901H4.45455C4.17677 6.45901 3.95202 6.68347 3.95202 6.9609V11.2888C3.95202 11.5662 4.17677 11.7907 4.45455 11.7907H6.52525L10.4167 13.5637C10.5732 13.6343 10.7525 13.6217 10.8965 13.5284C11.0404 13.435 11.1263 13.2762 11.1263 13.1072V4.86758H11.1288ZM12.9773 6.35812C12.8788 6.24463 12.7374 6.1841 12.596 6.1841C12.4798 6.1841 12.3611 6.22445 12.2677 6.30768C12.0581 6.48927 12.0354 6.80705 12.2172 7.01638C14.005 9.07944 12.3081 10.8928 12.2348 10.9685C12.0429 11.1677 12.048 11.4855 12.2475 11.6772C12.447 11.8688 12.7626 11.8638 12.9571 11.6671C13.803 10.7995 14.8965 8.57502 12.9773 6.35812Z" fill="#4BB2FF"/>
</svg>
